# WaveFront *.obj file (generated by Autodesk ATF)

mtllib 84c33d54-d9da-414e-8fdc-6c128fa52e53.mtl

g Body1

v 3500.000000 0.000000 -230.303993
v 2861.091818 0.000000 -480.589442
v 2262.467532 0.000000 -815.992832
v 1715.401545 0.000000 -1230.197222
v 1230.197222 0.000000 -1715.401545
v 815.992832 0.000000 -2262.467532
v 480.589442 0.000000 -2861.091818
v 230.303993 0.000000 -3500.000000
v 230.303993 10000.000000 -3500.000000
v 480.589442 10000.000000 -2861.091818
v 815.992832 10000.000000 -2262.467532
v 1230.197222 10000.000000 -1715.401545
v 1715.401545 10000.000000 -1230.197222
v 2262.467532 10000.000000 -815.992832
v 2861.091818 10000.000000 -480.589442
v 3500.000000 10000.000000 -230.303993
v 3500.000000 0.000000 230.303993
v 3500.000000 10000.000000 230.303993
v 230.303993 0.000000 3500.000000
v 480.589442 0.000000 2861.091818
v 815.992832 0.000000 2262.467532
v 1230.197222 0.000000 1715.401545
v 1715.401545 0.000000 1230.197222
v 2262.467532 0.000000 815.992832
v 2861.091818 0.000000 480.589442
v 2861.091818 10000.000000 480.589442
v 2262.467532 10000.000000 815.992832
v 1715.401545 10000.000000 1230.197222
v 1230.197222 10000.000000 1715.401545
v 815.992832 10000.000000 2262.467532
v 480.589442 10000.000000 2861.091818
v 230.303993 10000.000000 3500.000000
v -230.303993 0.000000 3500.000000
v -230.303993 10000.000000 3500.000000
v -3500.000000 0.000000 230.303993
v -2861.091818 0.000000 480.589442
v -2262.467532 0.000000 815.992832
v -1715.401545 0.000000 1230.197222
v -1230.197222 0.000000 1715.401545
v -815.992832 0.000000 2262.467532
v -480.589442 0.000000 2861.091818
v -480.589442 10000.000000 2861.091818
v -815.992832 10000.000000 2262.467532
v -1230.197222 10000.000000 1715.401545
v -1715.401545 10000.000000 1230.197222
v -2262.467532 10000.000000 815.992832
v -2861.091818 10000.000000 480.589442
v -3500.000000 10000.000000 230.303993
v -3500.000000 0.000000 -230.303993
v -3500.000000 10000.000000 -230.303993
v -230.303993 0.000000 -3500.000000
v -480.589442 0.000000 -2861.091818
v -815.992832 0.000000 -2262.467532
v -1230.197222 0.000000 -1715.401545
v -1715.401545 0.000000 -1230.197222
v -2262.467532 0.000000 -815.992832
v -2861.091818 0.000000 -480.589442
v -2861.091818 10000.000000 -480.589442
v -2262.467532 10000.000000 -815.992832
v -1715.401545 10000.000000 -1230.197222
v -1230.197222 10000.000000 -1715.401545
v -815.992832 10000.000000 -2262.467532
v -480.589442 10000.000000 -2861.091818
v -230.303993 10000.000000 -3500.000000
vt 1000.000000 -937.744490 0.000000
vt -0.000000 -937.744490 0.000000
vt 1000.000000 -1006.416706 0.000000
vt -0.000000 -1006.416706 0.000000
vt 1000.000000 -1075.088921 0.000000
vt 0.000000 -1075.088921 0.000000
vt 1000.000000 -1143.761137 0.000000
vt 0.000000 -1143.761137 0.000000
vt 1000.000000 -1212.433352 0.000000
vt 0.000000 -1212.433352 0.000000
vt 1000.000000 -1281.105568 0.000000
vt 0.000000 -1281.105568 0.000000
vt 1000.000000 -1349.777784 0.000000
vt 0.000000 -1349.777784 0.000000
vt 1000.000000 -1418.449999 0.000000
vt -0.000000 -1418.449999 0.000000
vt -0.000000 0.000000 0.000000
vt 46.060799 0.000000 0.000000
vt -0.000000 1000.000000 0.000000
vt 46.060799 1000.000000 0.000000
vt 1000.000000 1418.449999 0.000000
vt 0.000000 1418.449999 0.000000
vt 1000.000000 1349.777784 0.000000
vt 0.000000 1349.777784 0.000000
vt 1000.000000 1281.105568 0.000000
vt 0.000000 1281.105568 0.000000
vt 1000.000000 1212.433352 0.000000
vt 0.000000 1212.433352 0.000000
vt 1000.000000 1143.761137 0.000000
vt 0.000000 1143.761137 0.000000
vt 1000.000000 1075.088921 0.000000
vt 0.000000 1075.088921 0.000000
vt 1000.000000 1006.416706 0.000000
vt -0.000000 1006.416706 0.000000
vt 1000.000000 937.744490 0.000000
vt 0.000000 937.744490 0.000000
vt 0.000000 0.000000 0.000000
vt 46.060799 0.000000 0.000000
vt 0.000000 1000.000000 0.000000
vt 46.060799 1000.000000 0.000000
vt 1000.000000 633.051836 0.000000
vt -0.000000 633.051836 0.000000
vt 1000.000000 564.379621 0.000000
vt 0.000000 564.379621 0.000000
vt 1000.000000 495.707405 0.000000
vt 0.000000 495.707405 0.000000
vt 1000.000000 427.035189 0.000000
vt 0.000000 427.035189 0.000000
vt 1000.000000 358.362974 0.000000
vt 0.000000 358.362974 0.000000
vt 1000.000000 289.690758 0.000000
vt 0.000000 289.690758 0.000000
vt 1000.000000 221.018543 0.000000
vt 0.000000 221.018543 0.000000
vt 1000.000000 152.346327 0.000000
vt 0.000000 152.346327 0.000000
vt 0.000000 0.000000 0.000000
vt 46.060799 0.000000 0.000000
vt 0.000000 1000.000000 0.000000
vt 46.060799 1000.000000 0.000000
vt 1000.000000 -152.346327 0.000000
vt -0.000000 -152.346327 0.000000
vt 1000.000000 -221.018543 0.000000
vt 0.000000 -221.018543 0.000000
vt 1000.000000 -289.690758 0.000000
vt 0.000000 -289.690758 0.000000
vt 1000.000000 -358.362974 0.000000
vt 0.000000 -358.362974 0.000000
vt 1000.000000 -427.035189 0.000000
vt 0.000000 -427.035189 0.000000
vt 1000.000000 -495.707405 0.000000
vt 0.000000 -495.707405 0.000000
vt 1000.000000 -564.379621 0.000000
vt 0.000000 -564.379621 0.000000
vt 1000.000000 -633.051836 0.000000
vt -0.000000 -633.051836 0.000000
vt -0.000000 0.000000 0.000000
vt 46.060799 0.000000 0.000000
vt -0.000000 1000.000000 0.000000
vt 46.060799 1000.000000 0.000000
vt 23.030399 350.000000 0.000000
vt -23.030399 350.000000 0.000000
vt 48.058944 286.109182 0.000000
vt -48.058944 286.109182 0.000000
vt 81.599283 226.246753 0.000000
vt -81.599283 226.246753 0.000000
vt 123.019722 171.540154 0.000000
vt -123.019722 171.540154 0.000000
vt 171.540154 123.019722 0.000000
vt 171.540154 -123.019722 0.000000
vt 226.246753 -81.599283 0.000000
vt -171.540154 123.019722 0.000000
vt 123.019722 -171.540154 0.000000
vt -171.540154 -123.019722 0.000000
vt -123.019722 -171.540154 0.000000
vt -226.246753 -81.599283 0.000000
vt -226.246753 81.599283 0.000000
vt -286.109182 -48.058944 0.000000
vt -286.109182 48.058944 0.000000
vt -350.000000 -23.030399 0.000000
vt -350.000000 23.030399 0.000000
vt 81.599283 -226.246753 0.000000
vt -81.599283 -226.246753 0.000000
vt 48.058944 -286.109182 0.000000
vt -48.058944 -286.109182 0.000000
vt 23.030399 -350.000000 0.000000
vt -23.030399 -350.000000 0.000000
vt 226.246753 81.599283 0.000000
vt 286.109182 -48.058944 0.000000
vt 286.109182 48.058944 0.000000
vt 350.000000 -23.030399 0.000000
vt 350.000000 23.030399 0.000000
vt 23.030399 350.000000 0.000000
vt -23.030399 350.000000 0.000000
vt 48.058944 286.109182 0.000000
vt -48.058944 286.109182 0.000000
vt 81.599283 226.246753 0.000000
vt -81.599283 226.246753 0.000000
vt 123.019722 171.540154 0.000000
vt -123.019722 171.540154 0.000000
vt 171.540154 123.019722 0.000000
vt 171.540154 -123.019722 0.000000
vt 226.246753 -81.599283 0.000000
vt -171.540154 123.019722 0.000000
vt 123.019722 -171.540154 0.000000
vt -171.540154 -123.019722 0.000000
vt -123.019722 -171.540154 0.000000
vt -226.246753 -81.599283 0.000000
vt -226.246753 81.599283 0.000000
vt -286.109182 -48.058944 0.000000
vt -286.109182 48.058944 0.000000
vt -350.000000 -23.030399 0.000000
vt -350.000000 23.030399 0.000000
vt 81.599283 -226.246753 0.000000
vt -81.599283 -226.246753 0.000000
vt 48.058944 -286.109182 0.000000
vt -48.058944 -286.109182 0.000000
vt 23.030399 -350.000000 0.000000
vt -23.030399 -350.000000 0.000000
vt 226.246753 81.599283 0.000000
vt 286.109182 -48.058944 0.000000
vt 286.109182 48.058944 0.000000
vt 350.000000 -23.030399 0.000000
vt 350.000000 23.030399 0.000000
vn 0.030000 0.000000 -0.095394
vn 0.030000 0.000000 -0.095394
vn 0.042778 0.000000 -0.090388
vn 0.042778 0.000000 -0.090388
vn 0.054751 0.000000 -0.083680
vn 0.054751 0.000000 -0.083680
vn 0.065692 0.000000 -0.075396
vn 0.065692 0.000000 -0.075396
vn 0.075396 0.000000 -0.065692
vn 0.075396 0.000000 -0.065692
vn 0.083680 0.000000 -0.054751
vn 0.083680 0.000000 -0.054751
vn 0.090388 0.000000 -0.042778
vn 0.090388 0.000000 -0.042778
vn 0.095394 0.000000 -0.030000
vn 0.095394 0.000000 -0.030000
vn 0.100000 0.000000 0.000000
vn 0.100000 0.000000 0.000000
vn 0.100000 0.000000 0.000000
vn 0.100000 0.000000 0.000000
vn 0.095394 -0.000000 0.030000
vn 0.095394 -0.000000 0.030000
vn 0.090388 -0.000000 0.042778
vn 0.090388 -0.000000 0.042778
vn 0.083680 -0.000000 0.054751
vn 0.083680 -0.000000 0.054751
vn 0.075396 -0.000000 0.065692
vn 0.075396 -0.000000 0.065692
vn 0.065692 -0.000000 0.075396
vn 0.065692 -0.000000 0.075396
vn 0.054751 -0.000000 0.083680
vn 0.054751 -0.000000 0.083680
vn 0.042778 -0.000000 0.090388
vn 0.042778 -0.000000 0.090388
vn 0.030000 -0.000000 0.095394
vn 0.030000 -0.000000 0.095394
vn 0.000000 -0.000000 0.100000
vn 0.000000 -0.000000 0.100000
vn 0.000000 -0.000000 0.100000
vn 0.000000 -0.000000 0.100000
vn -0.030000 0.000000 0.095394
vn -0.030000 0.000000 0.095394
vn -0.042778 0.000000 0.090388
vn -0.042778 0.000000 0.090388
vn -0.054751 0.000000 0.083680
vn -0.054751 0.000000 0.083680
vn -0.065692 0.000000 0.075396
vn -0.065692 0.000000 0.075396
vn -0.075396 0.000000 0.065692
vn -0.075396 0.000000 0.065692
vn -0.083680 0.000000 0.054751
vn -0.083680 0.000000 0.054751
vn -0.090388 0.000000 0.042778
vn -0.090388 0.000000 0.042778
vn -0.095394 0.000000 0.030000
vn -0.095394 0.000000 0.030000
vn -0.100000 0.000000 0.000000
vn -0.100000 0.000000 0.000000
vn -0.100000 0.000000 0.000000
vn -0.100000 0.000000 0.000000
vn -0.095394 0.000000 -0.030000
vn -0.095394 0.000000 -0.030000
vn -0.090388 0.000000 -0.042778
vn -0.090388 0.000000 -0.042778
vn -0.083680 0.000000 -0.054751
vn -0.083680 0.000000 -0.054751
vn -0.075396 0.000000 -0.065692
vn -0.075396 0.000000 -0.065692
vn -0.065692 0.000000 -0.075396
vn -0.065692 0.000000 -0.075396
vn -0.054751 0.000000 -0.083680
vn -0.054751 0.000000 -0.083680
vn -0.042778 0.000000 -0.090388
vn -0.042778 0.000000 -0.090388
vn -0.030000 0.000000 -0.095394
vn -0.030000 0.000000 -0.095394
vn 0.000000 0.000000 -0.100000
vn 0.000000 0.000000 -0.100000
vn 0.000000 0.000000 -0.100000
vn 0.000000 0.000000 -0.100000
vn 0.000000 0.100000 0.000000
vn 0.000000 0.100000 0.000000
vn 0.000000 0.100000 0.000000
vn 0.000000 0.100000 0.000000
vn 0.000000 0.100000 0.000000
vn 0.000000 0.100000 0.000000
vn 0.000000 0.100000 0.000000
vn 0.000000 0.100000 0.000000
vn 0.000000 0.100000 0.000000
vn 0.000000 0.100000 0.000000
vn 0.000000 0.100000 0.000000
vn 0.000000 0.100000 0.000000
vn 0.000000 0.100000 0.000000
vn 0.000000 0.100000 0.000000
vn 0.000000 0.100000 0.000000
vn 0.000000 0.100000 0.000000
vn 0.000000 0.100000 0.000000
vn 0.000000 0.100000 0.000000
vn 0.000000 0.100000 0.000000
vn 0.000000 0.100000 0.000000
vn 0.000000 0.100000 0.000000
vn 0.000000 0.100000 0.000000
vn 0.000000 0.100000 0.000000
vn 0.000000 0.100000 0.000000
vn 0.000000 0.100000 0.000000
vn 0.000000 0.100000 0.000000
vn 0.000000 0.100000 0.000000
vn 0.000000 0.100000 0.000000
vn 0.000000 0.100000 0.000000
vn 0.000000 0.100000 0.000000
vn 0.000000 0.100000 0.000000
vn 0.000000 0.100000 0.000000
vn 0.000000 -0.100000 0.000000
vn 0.000000 -0.100000 0.000000
vn 0.000000 -0.100000 0.000000
vn 0.000000 -0.100000 0.000000
vn 0.000000 -0.100000 0.000000
vn 0.000000 -0.100000 0.000000
vn 0.000000 -0.100000 0.000000
vn 0.000000 -0.100000 0.000000
vn 0.000000 -0.100000 0.000000
vn 0.000000 -0.100000 0.000000
vn 0.000000 -0.100000 0.000000
vn 0.000000 -0.100000 0.000000
vn 0.000000 -0.100000 0.000000
vn 0.000000 -0.100000 0.000000
vn 0.000000 -0.100000 0.000000
vn 0.000000 -0.100000 0.000000
vn 0.000000 -0.100000 0.000000
vn 0.000000 -0.100000 0.000000
vn 0.000000 -0.100000 0.000000
vn 0.000000 -0.100000 0.000000
vn 0.000000 -0.100000 0.000000
vn 0.000000 -0.100000 0.000000
vn 0.000000 -0.100000 0.000000
vn 0.000000 -0.100000 0.000000
vn 0.000000 -0.100000 0.000000
vn 0.000000 -0.100000 0.000000
vn 0.000000 -0.100000 0.000000
vn 0.000000 -0.100000 0.000000
vn 0.000000 -0.100000 0.000000
vn 0.000000 -0.100000 0.000000
vn 0.000000 -0.100000 0.000000
vn 0.000000 -0.100000 0.000000
usemtl Steel_-_Satin
f 16/1/1 1/2/2 15/3/3
f 15/3/3 1/2/2 2/4/4
f 15/3/3 2/4/4 14/5/5
f 14/5/5 2/4/4 3/6/6
f 14/5/5 3/6/6 13/7/7
f 13/7/7 3/6/6 4/8/8
f 13/7/7 4/8/8 12/9/9
f 12/9/9 4/8/8 5/10/10
f 12/9/9 5/10/10 11/11/11
f 11/11/11 5/10/10 6/12/12
f 11/11/11 6/12/12 10/13/13
f 10/13/13 6/12/12 7/14/14
f 10/13/13 7/14/14 9/15/15
f 9/15/15 7/14/14 8/16/16
f 17/17/17 1/18/18 18/19/19
f 18/19/19 1/18/18 16/20/20
f 32/21/21 19/22/22 31/23/23
f 31/23/23 19/22/22 20/24/24
f 31/23/23 20/24/24 30/25/25
f 30/25/25 20/24/24 21/26/26
f 30/25/25 21/26/26 29/27/27
f 29/27/27 21/26/26 22/28/28
f 29/27/27 22/28/28 28/29/29
f 28/29/29 22/28/28 23/30/30
f 28/29/29 23/30/30 27/31/31
f 27/31/31 23/30/30 24/32/32
f 27/31/31 24/32/32 26/33/33
f 26/33/33 24/32/32 25/34/34
f 26/33/33 25/34/34 18/35/35
f 18/35/35 25/34/34 17/36/36
f 33/37/37 19/38/38 34/39/39
f 34/39/39 19/38/38 32/40/40
f 48/41/41 35/42/42 47/43/43
f 47/43/43 35/42/42 36/44/44
f 47/43/43 36/44/44 46/45/45
f 46/45/45 36/44/44 37/46/46
f 46/45/45 37/46/46 45/47/47
f 45/47/47 37/46/46 38/48/48
f 45/47/47 38/48/48 44/49/49
f 44/49/49 38/48/48 39/50/50
f 44/49/49 39/50/50 43/51/51
f 43/51/51 39/50/50 40/52/52
f 43/51/51 40/52/52 42/53/53
f 42/53/53 40/52/52 41/54/54
f 42/53/53 41/54/54 34/55/55
f 34/55/55 41/54/54 33/56/56
f 49/57/57 35/58/58 50/59/59
f 50/59/59 35/58/58 48/60/60
f 64/61/61 51/62/62 63/63/63
f 63/63/63 51/62/62 52/64/64
f 63/63/63 52/64/64 62/65/65
f 62/65/65 52/64/64 53/66/66
f 62/65/65 53/66/66 61/67/67
f 61/67/67 53/66/66 54/68/68
f 61/67/67 54/68/68 60/69/69
f 60/69/69 54/68/68 55/70/70
f 60/69/69 55/70/70 59/71/71
f 59/71/71 55/70/70 56/72/72
f 59/71/71 56/72/72 58/73/73
f 58/73/73 56/72/72 57/74/74
f 58/73/73 57/74/74 50/75/75
f 50/75/75 57/74/74 49/76/76
f 8/77/77 51/78/78 9/79/79
f 9/79/79 51/78/78 64/80/80
f 9/81/81 64/82/82 10/83/83
f 10/83/83 64/82/82 63/84/84
f 10/83/83 63/84/84 11/85/85
f 11/85/85 63/84/84 62/86/86
f 11/85/85 62/86/86 12/87/87
f 12/87/87 62/86/86 61/88/88
f 12/87/87 61/88/88 13/89/89
f 13/89/89 61/88/88 28/90/90
f 13/89/89 28/90/90 27/91/91
f 61/88/88 60/92/92 28/90/90
f 28/90/90 60/92/92 29/93/93
f 29/93/93 60/92/92 45/94/94
f 29/93/93 45/94/94 44/95/95
f 45/94/94 60/92/92 46/96/96
f 46/96/96 60/92/92 59/97/97
f 46/96/96 59/97/97 47/98/98
f 47/98/98 59/97/97 58/99/99
f 47/98/98 58/99/99 48/100/100
f 48/100/100 58/99/99 50/101/101
f 29/93/93 44/95/95 30/102/102
f 30/102/102 44/95/95 43/103/103
f 30/102/102 43/103/103 31/104/104
f 31/104/104 43/103/103 42/105/105
f 31/104/104 42/105/105 32/106/106
f 32/106/106 42/105/105 34/107/107
f 13/89/89 27/91/91 14/108/108
f 14/108/108 27/91/91 26/109/109
f 14/108/108 26/109/109 15/110/110
f 15/110/110 26/109/109 18/111/111
f 15/110/110 18/111/111 16/112/112
f 51/113/113 8/114/114 52/115/115
f 52/115/115 8/114/114 7/116/116
f 52/115/115 7/116/116 53/117/117
f 53/117/117 7/116/116 6/118/118
f 53/117/117 6/118/118 54/119/119
f 54/119/119 6/118/118 5/120/120
f 54/119/119 5/120/120 55/121/121
f 55/121/121 5/120/120 38/122/122
f 55/121/121 38/122/122 37/123/123
f 5/120/120 4/124/124 38/122/122
f 38/122/122 4/124/124 39/125/125
f 39/125/125 4/124/124 23/126/126
f 39/125/125 23/126/126 22/127/127
f 23/126/126 4/124/124 24/128/128
f 24/128/128 4/124/124 3/129/129
f 24/128/128 3/129/129 25/130/130
f 25/130/130 3/129/129 2/131/131
f 25/130/130 2/131/131 17/132/132
f 17/132/132 2/131/131 1/133/133
f 39/125/125 22/127/127 40/134/134
f 40/134/134 22/127/127 21/135/135
f 40/134/134 21/135/135 41/136/136
f 41/136/136 21/135/135 20/137/137
f 41/136/136 20/137/137 33/138/138
f 33/138/138 20/137/137 19/139/139
f 55/121/121 37/123/123 56/140/140
f 56/140/140 37/123/123 36/141/141
f 56/140/140 36/141/141 57/142/142
f 57/142/142 36/141/141 35/143/143
f 57/142/142 35/143/143 49/144/144
# 64 vertices
# 144 texture params
# 144 normals
# 124 facets

# 1 groups
